<mxfile host="app.diagrams.net" agent="Mozilla/5.0 (X11; Linux x86_64; rv:109.0) Gecko/20100101 Firefox/115.0" version="28.0.7">
  <diagram name="第 1 页" id="GjO0GAbTQwqVim4LTeIz">
    <mxGraphModel dx="1213" dy="701" grid="1" gridSize="10" guides="1" tooltips="1" connect="1" arrows="1" fold="1" page="1" pageScale="1" pageWidth="3300" pageHeight="4681" math="0" shadow="0">
      <root>
        <mxCell id="0" />
        <mxCell id="1" parent="0" />
        <mxCell id="SmhbG2yGJK3qt77CbI1s-3" style="edgeStyle=orthogonalEdgeStyle;rounded=0;orthogonalLoop=1;jettySize=auto;html=1;entryX=0.5;entryY=0;entryDx=0;entryDy=0;" edge="1" parent="1" source="SmhbG2yGJK3qt77CbI1s-1" target="SmhbG2yGJK3qt77CbI1s-2">
          <mxGeometry relative="1" as="geometry" />
        </mxCell>
        <mxCell id="SmhbG2yGJK3qt77CbI1s-1" value="转帐开始" style="ellipse;whiteSpace=wrap;html=1;" vertex="1" parent="1">
          <mxGeometry x="480" y="80" width="120" height="80" as="geometry" />
        </mxCell>
        <mxCell id="SmhbG2yGJK3qt77CbI1s-2" value="发起转账，扣除发起者账户余额，生成转帐记录，记录本地消息表" style="rounded=0;whiteSpace=wrap;html=1;" vertex="1" parent="1">
          <mxGeometry x="450" y="200" width="180" height="70" as="geometry" />
        </mxCell>
        <mxCell id="SmhbG2yGJK3qt77CbI1s-4" value="定时任务查询" style="rounded=0;whiteSpace=wrap;html=1;" vertex="1" parent="1">
          <mxGeometry x="450" y="340" width="180" height="80" as="geometry" />
        </mxCell>
      </root>
    </mxGraphModel>
  </diagram>
</mxfile>
